<?xml version="1.0" encoding="UTF-8" standalone="no"?>
<!-- Created with Inkscape (http://www.inkscape.org/) -->
<svg xmlns:rdf="http://www.w3.org/1999/02/22-rdf-syntax-ns#" xmlns="http://www.w3.org/2000/svg" xmlns:cc="http://web.resource.org/cc/" xmlns:dc="http://purl.org/dc/elements/1.1/" xmlns:svg="http://www.w3.org/2000/svg" xmlns:inkscape="http://www.inkscape.org/namespaces/inkscape" xmlns:sodipodi="http://sodipodi.sourceforge.net/DTD/sodipodi-0.dtd" xmlns:ns1="http://sozi.baierouge.fr" xmlns:xlink="http://www.w3.org/1999/xlink" id="Layer_1" xml:space="preserve" version="1.0" viewBox="0 0 352.391 282.887" inkscape:version="0.91 r13725">
<path id="path5" style="fill-rule:evenodd" d="m27.072 130.55c-1.944-2.56-2.484-6.01-2.16-10.51 0.468-4.58 2.016-10.66 4.788-16.6 2.952-6.049 7.956-13.753 12.24-19.225 4.32-5.58 7.524-11.772 13.104-13.572 5.832-1.764 13.788 2.448 20.556 3.06 6.696 0.468 10.836 5.976 19.224 0 8.456-6.12 21.026-26.676 31.036-36.252 10.18-9.684 16.66-15.48 28.87-21.42 12.27-6.192 29.3-12.024 43.7-14.436 14.44-2.412 29.81-1.944 42.37 0.432 12.42 2.34 22.79 6.768 31.94 13.572 9.14 6.804 17.96 15.732 22.28 26.64 4.14 10.764 4 25.74 2.63 37.584-1.48 11.7-5.22 22.357-11.38 32.367 1.91 0.29 4 1.26 6.12 3.06 2.05 1.69 4.29 4.21 6.55 7.41 9 5.12 17.5 10.77 25.78 17.5 8.35 6.66 18.86 16.96 23.62 22.28 4.53 5.26 4.17 6.7 3.92 9.18-0.29 2.45-2.23 4.07-5.69 5.26-1.19 4.07-2.59 7.38-4.35 10.48-1.73 2.95-3.82 5.47-6.12 7.41 4.86-0.86 7.77 0.11 9.18 2.63 1.22 2.52 2.23 6.05-1.3 12.67-3.64 6.66-5.11 15.88-20.12 26.68-15.34 10.69-44.21 28.94-69.95 36.72-25.85 7.59-55.33 11.01-83.02 8.71-27.54-2.56-58.57-13.46-80.854-23.15-22.104-9.75-35.964-20.48-51.156-34.52-15.156-14.11-27.792-30.35-38.88-49.39 1.944-7.57 5.148-14.76 9.612-22.29 4.608-7.56 10.296-14.76 17.46-22.28z"/>
<linearGradient id="XMLID_15_" y2="60.42" gradientUnits="userSpaceOnUse" x2="295.98" y1="60.42" x1="27.972">
	<stop id="stop8" style="stop-color:#547dbf" offset="0"/>
	<stop id="stop10" style="stop-color:#2d2f8b" offset="1"/>
</linearGradient>
<path id="path12" style="fill-rule:evenodd;fill:url(#XMLID_15_)" d="m27.972 117.84c0.036-3.46 1.296-7.78 3.924-13.1 2.772-5.441 8.1-13.973 11.808-18.797 3.744-4.824 6.768-8.172 10.044-10.044 3.384-1.908 4.644-2.016 9.612-1.296 5.004 0.648 14.58 4.932 20.124 5.22 5.616 0.18 7.812 0.72 13.536-3.924 5.9-4.788 14.62-16.416 21.42-24.048 6.88-7.704 11.81-15.444 19.22-21.42 7.46-5.94 15.45-10.224 25.35-14.4 10.11-4.392 23.79-9.288 34.52-11.376 10.77-2.124 20.77-1.764 29.74-1.296 8.78 0.288 15.15 0.756 23.15 3.492 8.02 2.664 17.53 6.984 24.48 13.104 6.87 6.192 12.49 15.228 16.16 23.616 3.53 8.208 5.36 15.876 4.82 25.776-0.68 9.864-3.6 20.844-8.75 33.233-15.22-6.953-31.46-11.525-49.82-14.009-18.54-2.52-37.76-2.808-59.44-0.864-21.49 1.908-43.99 5.94-68.61 12.24 2.05-5.58 5.54-12.096 10.47-20.124 5.15-8.136 17.18-23.616 19.26-27.54 2.02-3.852-3.24 0.108-7.02 4.392-3.74 4.212-10.36 14.472-14.86 20.52-4.25 5.904-7.74 12.528-10.91 14.868-3.03 2.232-5.19-0.792-7.886-1.296-2.736-0.648-7.668-2.628-8.28-2.196-0.396 0.324 3.384 2.628 5.22 4.392 1.908 1.656 6.116 4.932 5.686 5.652-0.43 0.576-4.354-1.62-8.278-1.728-3.852-0.18-10.8 0.108-14.868 0.864-3.996 0.648-10.296 3.239-9.18 3.489 1.332 0.11 11.952-2.193 16.596-2.193 4.644-0.036 9.36 1.113 10.944 2.193 1.8 1.08 3.816 2.99-1.332 3.93-5.364 0.83-21.096-0.07-30.132 0.9-8.856 0.9-16.488 2.3-22.752 4.35-6.154 1.91-10.762 4.43-13.966 7.42z"/>
<path id="path14" style="fill-rule:evenodd" d="m169.56 34.823c2.52 1.08 5.83 1.764 10.08 2.196 4.32 0.36 9.29 0.36 15.3 0l0.43-14.868c4.68 2.412 8.68 3.672 12.24 3.924 3.53 0.18 6.34-0.648 8.71-2.628 3.96 1.98 7.42 2.808 10.52 2.628 3.09-0.252 5.58-1.512 7.84-3.924 0.54 2.52 0.8 4.86 0.9 7.416 0.04 2.448-0.07 4.932-0.46 7.452 5.97 0.612 10.8 0.756 14.86 0.432 4.07-0.396 6.95-1.224 9.18-2.628 1.66 6.3 0.22 11.448-3.92 15.732-4.36 4.212-11.27 7.416-21.42 9.612-0.94 5.364-2.74 9.684-5.69 13.104-2.98 3.384-6.87 5.616-11.81 6.984-5.25-1.872-9.43-4.68-12.67-8.28-3.24-3.744-5.33-8.136-6.55-13.572-8.28-0.216-14.51-2.16-19.22-6.12-4.58-3.996-7.35-9.72-8.32-17.46z"/>
<path id="path16" style="fill-rule:evenodd;fill:#fcf061" d="m172.19 37.451c1.51 0.756 4.1 1.332 8.31 1.728 4.22 0.324 9.62 0.468 16.6 0.432v-13.968c3.38 1.764 6.73 2.88 10.04 3.06 3.35 0.252 6.66-0.432 10.08-1.764 2.34 1.476 4.72 2.16 7.42 2.196 2.59-0.036 5.36-0.72 8.32-2.196 0.03 1.728 0.03 3.672 0 5.688-0.11 2.016-0.26 4.248-0.44 6.552 4.68 0.864 9 1.152 13.11 0.864 4.1-0.288 7.85-1.152 11.37-2.592 1.01 4.86-0.46 8.892-4.82 12.24-4.43 3.312-11.2 5.688-20.99 7.416-0.54 6.264-1.94 10.944-4.35 14.436-2.52 3.384-5.69 5.472-10.05 6.12-4.07-0.504-7.52-2.592-10.51-6.12-2.95-3.672-5.47-8.64-7.42-15.3-7.56-0.18-13.39-1.656-17.92-4.824-4.5-3.168-7.28-7.776-8.75-13.968z"/>
<path id="path18" style="fill-rule:evenodd" d="m222.34 54.443h0.14c1.3 0.072 2.23 0.288 2.84 0.756 0.62 0.468 0.87 1.152 0.87 2.088 0 1.116-0.25 2.304-0.83 3.6-0.54 1.296-1.3 2.52-2.27 3.636-1.11 1.296-2.45 2.304-3.89 3.06-1.47 0.792-2.95 1.152-4.42 1.152-2.56 0-4.54-1.008-5.98-2.952-1.44-1.98-2.2-4.572-2.2-7.92 0-2.556 0.36-5.184 1.16-7.884 0.75-2.7 1.76-4.824 3.06-6.516 1.62-2.844 3.27-4.824 5.14-6.012 1.88-1.152 4-1.764 6.38-1.764 2.08 0 3.77 0.612 5.03 1.836 1.26 1.152 1.84 2.772 1.84 4.788 0 2.052-0.36 3.564-1.15 4.68-0.79 1.08-1.94 1.692-3.53 1.728h-0.61c-1.04 0-1.87-0.144-2.52-0.468s-0.94-0.792-0.94-1.476c0-0.324 0.07-0.756 0.25-1.224 0.19-0.504 0.26-0.828 0.26-0.972s-0.04-0.216-0.07-0.324c-0.11-0.036-0.19-0.108-0.36-0.108-0.29 0-0.69 0.252-1.08 0.72-0.4 0.468-0.9 1.296-1.52 2.52-0.86 1.764-1.58 3.672-2.08 5.724-0.51 2.052-0.73 3.888-0.73 5.58 0 0.54 0.04 0.972 0.19 1.224 0.14 0.216 0.25 0.36 0.39 0.36 0.43 0 0.79-0.576 1.23-1.692 0.43-1.116 0.82-1.944 1.22-2.448 0.25-0.432 0.83-0.792 1.58-1.152 0.8-0.36 1.59-0.54 2.45-0.54h0.15z"/>
<linearGradient id="XMLID_16_" y2="89.66" gradientUnits="userSpaceOnUse" x2="195.59" y1="112.19" x1="195.59">
	<stop id="stop21" style="stop-color:#ded021" offset="0"/>
	<stop id="stop23" style="stop-color:#fcf065" offset="1"/>
</linearGradient>
<path id="path25" style="fill-rule:evenodd;fill:url(#XMLID_16_)" d="m107.96 102.58l-2.19 4.35 3.06 5.26c21.56-3.82 42.26-6.3 63.36-7.45 21.24-1.12 43.23-0.65 62.06 0.43 18.69 0.97 34.63 2.63 48.96 5.25l2.2-6.55c-19.23-6.407-37.8-10.583-56.85-12.671-19.08-2.124-36.03-1.98-56.37 0-20.31 1.872-41.29 5.616-64.23 11.381z"/>
<linearGradient id="XMLID_17_" y2="90.743" gradientUnits="userSpaceOnUse" x2="276.66" y1="168.51" x1="141.96">
	<stop id="stop28" style="stop-color:black" offset="0"/>
	<stop id="stop30" style="stop-color:#a3a5a8" offset=".4831"/>
	<stop id="stop32" style="stop-color:black" offset="1"/>
</linearGradient>
<path id="path34" style="fill-rule:evenodd;fill:url(#XMLID_17_)" d="m110.99 114.35c0.54 2.73 4.64 7.02 12.71 13.14 8.2 6.08 22.14 16.66 35.38 23.14 13.36 6.34 28.62 11.85 43.71 14.87 15.15 3.06 32.69 4.03 46.33 3.06 13.5-1.08 25.88-4.28 34.09-9.61 7.99-5.58 12.28-16.59 13.97-23.18 1.66-6.77-1.4-12.21-3.92-16.17-2.56-3.85-6.34-6.22-11.34-6.98-32.44-3.78-59.8-5.87-83.49-6.12-23.61-0.36-42.48 2.99-57.27 4.36-14.69 1.29-24.52 2.41-30.17 3.49z"/>
<path id="path36" style="fill-rule:evenodd;fill:#94d6da" d="m9.612 155.89c4.248-6.62 8.712-12.27 13.536-17.49 4.788-5.19 9.612-9 15.3-13.54 5.796-4.72 12.204-9.43 19.224-14.44 4.068-0.82 8.928-1.26 14.436-1.29 5.652-0.11 11.736 0.18 18.792 0.86-16.74 6.01-30.456 11.7-41.976 17.5-11.412 5.79-19.548 11.7-26.208 16.59-6.552 4.72-10.872 8.61-13.104 11.81z"/>
<path id="path38" style="fill-rule:evenodd;fill:#94d6da" d="m95.256 111.76c-1.044-0.04-1.044-0.04 0 0 1.152-0.04 3.348-0.04 6.584 0 2.49 2.59 4.72 4.96 6.56 6.98 1.94 2.05 3.49 3.74 4.78 5.22-16.592 1.37-30.596 3.56-42.836 6.59-12.096 3.09-20.844 7.05-29.7 11.34-8.748 4.14-16.92 8.93-22.716 13.1-5.76 4-9.36 7.6-11.376 10.94 2.736-4.82 6.769-9.54 12.24-14.43 5.616-4.9 11.664-9.8 20.52-14.84 9.036-5.14 22.932-11.59 32.364-15.73 9.432-4.17 17.1-7.23 23.58-9.17z"/>
<linearGradient id="XMLID_18_" y2="127.49" gradientUnits="userSpaceOnUse" x2="104.45" y1="154.56" x1="104.45">
	<stop id="stop41" style="stop-color:#7accc8" offset="0"/>
	<stop id="stop43" style="stop-color:#94d6da" offset="1"/>
</linearGradient>
<path id="path45" style="fill-rule:evenodd;fill:url(#XMLID_18_)" d="m52.02 139.73c5.724-2.38 12.096-4.47 19.656-6.12 7.704-1.66 17.82-3.03 25.344-3.96 7.45-1.08 13.86-1.8 19.22-2.16 5.3 4.28 11.13 8.6 17.93 13.1 6.88 4.43 14.26 8.89 22.72 13.54-6.09-1.55-11.67-2.27-17.03-2.16-5.36 0.03-10.22 0.9-14.87 2.59 3.39-3.2 4.07-5.98 2.2-8.71-1.87-2.74-5.62-6.01-13.57-7.45-7.89-1.52-23.26-2.09-33.628-1.73-10.332 0.25-19.476 1.22-27.972 3.06z"/>
<linearGradient id="XMLID_19_" y2="139.58" gradientUnits="userSpaceOnUse" x2="63.985" y1="175.51" x1="63.985">
	<stop id="stop48" style="stop-color:#7accc8" offset="0"/>
	<stop id="stop50" style="stop-color:#94d6da" offset="1"/>
</linearGradient>
<path id="path52" style="fill-rule:evenodd;fill:url(#XMLID_19_)" d="m4.788 174.68c0.864-2.73 12.024-13.35 20.988-18.79 9-5.58 20.232-10.8 32.328-13.57 12.276-2.77 29.7-2.99 40.212-2.59 10.584 0.32 18.574 2.37 22.324 4.79 3.7 2.37 3.27 6.22-0.47 9.61-3.82 3.38-11.05 7.85-21.854 10.04-10.764 1.91-28.908 0.5-41.94 1.77-12.888 1.22-26.208 4.14-34.956 5.68-8.712 1.44-17.172 5.66-16.632 3.06z"/>
<linearGradient id="XMLID_20_" y2="178.1" gradientUnits="userSpaceOnUse" x2="173.47" y1="279.49" x1="173.47">
	<stop id="stop55" style="stop-color:#005f53" offset="0"/>
	<stop id="stop57" style="stop-color:#7accc8" offset="1"/>
</linearGradient>
<path id="path59" style="fill-rule:evenodd;fill:url(#XMLID_20_)" d="m6.552 178.17c2.664 2.99 8.352 5.44 17.496 7.89 9.36 2.34 26.172 4.46 37.116 6.08 10.872 1.55 21.024 1.05 27.54 3.06 6.516 1.88 10.404 5.3 11.376 8.32 1.08 2.88-0.252 7.06-5.256 9.18-5.004 2.02-14.364 5.44-24.48 3.06-10.116-2.63-26.172-12.67-35.388-17.5-9.108-4.86-15.192-8.31-18.792-10.9 7.128 5.72 14.328 10.83 22.284 15.73 8.064 4.89 17.388 10.01 24.912 13.1 7.488 2.95 13.896 4.32 19.656 4.39 5.94-0.07 11.736-1.9 15.3-4.39 3.564-2.48 5.654-5.98 6.124-10.48 18.61-2.34 33.15-3.7 44.6-4.39 11.34-0.79 16.74-0.5 23.15 0.47 6.48 0.9 13.71 2.41 15.3 5.65 1.51 3.24-1.08 9.9-5.69 14.01-4.36 3.96-10.37 7.63-20.95 10.04-10.51 2.3-29.09 4.07-41.98 3.92-12.74-0.18-22.029-1.54-34.521-5.22-12.492-3.81-25.524-9.64-39.78-17.49 2.016 3.17 6.336 6.51 13.104 10.04 6.876 3.53 15.588 8.1 27.54 10.95 12.096 2.84 31.067 5.29 44.137 5.68 13.1 0.04 25.02-1.8 34.09-4.39 9.25-2.59 15.88-6.59 20.56-10.48 4.68-3.92 6.87-8.1 6.98-12.67 5.87-3.27 12.82-5.47 20.99-6.98 8.28-1.48 20.34-1.69 27.97-1.77 7.34-0.18 12.46-0.35 16.6 0.87 4.21 1.11 7.31 2.05 8.31 6.12 0.79 4.07 1.77 12.13-3.06 17.93-4.93 5.72-12.45 11.16-25.77 15.73-13.47 4.28-31.72 9.72-53.79 10.47-22.03 0.58-52.49 1.59-77.36-6.12-24.769-7.81-47.845-20.73-70.345-39.74 3.816 5.29 9.9 10.84 18.792 17.03 8.964 6.15 22.464 14.47 34.092 19.65 11.664 4.94 20.911 8.39 35.391 10.52 14.79 2.01 37.22 2.37 51.58 2.19 14.33-0.18 22.83-1.15 33.66-3.06 10.88-1.94 22.29-5.04 31.04-8.31 8.64-3.42 15.33-7.64 20.52-11.81 4.97-4.32 7.99-9.43 9.61-13.54 1.58-4.21 1.58-7.63 0-10.94 10.01-3.96 19.58-6.73 29.3-8.75 9.65-2.05 21.39-2.56 28.41-3.06 6.84-0.61 10.22-1.26 12.67 0 2.3 1.3 3.2 2.81 1.33 7.88-1.94 5.04-6.05 15.34-12.71 22.29-6.77 6.77-16.12 12.24-27.5 18.79-11.52 6.52-25.31 14.8-40.68 20.12-15.55 5.19-33.52 9.29-51.12 10.91-17.64 1.55-33.01 2.27-53.75-1.73-20.77-4.24-50-13.78-69.515-23.18-19.296-9.54-32.688-22.28-45.432-33.23-12.528-11.12-24.012-25.23-29.736-32.33-5.617-7.01-6.877-10.22-3.925-9.61z"/>
<linearGradient id="XMLID_21_" y2="154.84" gradientUnits="userSpaceOnUse" x2="86.958" y1="201.79" x1="86.958">
	<stop id="stop62" style="stop-color:#acacac" offset="0"/>
	<stop id="stop64" style="stop-color:#656565" offset="1"/>
</linearGradient>
<path id="path66" style="fill-rule:evenodd;fill:url(#XMLID_21_)" d="m10.476 176.88c10.008-3.02 20.52-5.22 32.364-6.59 11.952-1.37 27.684-1.3 38.016-1.73 10.26-0.54 15.984 0.04 23.144-1.76 7.17-1.95 13.68-5.15 19.7-9.61 5.18-1.23 10.15-1.91 15.3-2.2 5.25-0.29 11.12-0.18 15.26 0.47 4.1 0.5 7.16 1.65 9.18 3.06-7.38-0.54-14.22-0.4-20.95 0.43-6.66 0.79-12.93 2.2-18.79 4.36-5.69 2.09-9.36 5.04-15.3 8.31-5.84 3.24-17.392 8.82-19.696 10.91-2.052 1.91 2.448 2.3 6.552 0.9 4.104-1.48 12.854-6.62 17.924-9.18 5.26-2.56 9.72-4.47 13.11-6.12 3.38-1.77 5.72-3.28 7.02-4.39-3.53 4.53-5.76 8.53-6.55 12.67-0.8 3.99-0.22 7.56 1.72 11.37 2.06 3.75 5.51 7.35 10.52 10.95-7.96 0.61-14.62 1.19-20.56 1.73-5.87 0.54-10.58 0.93-14.44 1.33-1.29-3.6-4.316-6.37-9.608-8.32-5.184-1.94-11.124-2.09-21.42-3.49-10.224-1.58-29.268-3.53-39.78-5.69-10.404-2.16-17.928-4.67-22.716-7.41z"/>
<linearGradient id="XMLID_22_" y2="161.58" gradientUnits="userSpaceOnUse" x2="143.7" y1="197.83" x1="143.7">
	<stop id="stop69" style="stop-color:#f0f0f0" offset="0"/>
	<stop id="stop71" style="stop-color:#a7a7a7" offset="1"/>
</linearGradient>
<path id="path73" style="fill-rule:evenodd;fill:url(#XMLID_22_)" d="m138.1 162.88c-4.94 4.93-7.85 9.64-8.75 14-0.79 4.36 1.4 8.6 3.53 12.2 2.08 3.5 5.18 6.41 9.14 8.75 0.9-0.32 2.41-0.47 4.39-0.43 2.05-0.04 4.72 0.11 7.85 0.43l3.96-3.49c-7.34-3.89-11.92-7.78-14-11.81-1.98-4.14 0.32-8.67 1.76-12.24 1.55-3.56 3.74-6.37 6.98-8.71-3.31 0.07-6.22 0.22-8.74 0.43-2.52 0.22-4.43 0.51-6.12 0.87z"/>
<linearGradient id="XMLID_23_" y2="160.99" gradientUnits="userSpaceOnUse" x2="163.14" y1="192.61" x1="163.14">
	<stop id="stop76" style="stop-color:#78c143" offset="0"/>
	<stop id="stop78" style="stop-color:#076031" offset="1"/>
</linearGradient>
<path id="path80" style="fill-rule:evenodd;fill:url(#XMLID_23_)" d="m156.89 161.58c2.73-0.5 5.51-0.76 8.31-0.47 2.88 0.15 5.8 0.83 8.75 1.77 2.41 4.24 3.96 7.99 4.79 11.37 0.83 3.39 0.83 6.16 0 8.71-4.03 1.66-7.67 3.14-10.91 4.83-3.17 1.65-5.94 3.13-8.31 4.82-5.73-3.09-9.47-5.98-11.38-9.18-1.87-3.17-1.37-6.05 0-9.61 1.48-3.67 4.39-7.7 8.75-12.24z"/>
<path id="path82" style="fill-rule:evenodd" d="m163.01 172.05c-1.48 2.56-2.85 8.36-1.73 10.05 1.3 1.55 7.78 2.05 9.18-0.43 1.44-2.6 0.83-13.29-0.47-14.87-1.33-1.62-5.33 2.63-6.98 5.25z"/>
<path id="path84" style="fill-rule:evenodd;fill:white" d="m169.75 168.96c1.81 0 3.28 1.27 3.28 2.84s-1.47 2.85-3.28 2.85-3.27-1.28-3.27-2.85 1.46-2.84 3.27-2.84"/>
<path id="path86" style="fill-rule:evenodd;fill:#404040" d="m159.08 197.4c4.11-2.99 8-5.33 11.81-7.42 3.93-2.16 8.39-4.64 10.91-4.82 2.52-0.29 5.36 1.62 3.96 3.92-1.48 2.31-5.33 5.62-12.24 10.08-2.63-0.61-4.93-1-7.45-1.33-2.38-0.32-4.75-0.47-6.99-0.43z"/>
<linearGradient id="XMLID_24_" y2="164.64" gradientUnits="userSpaceOnUse" x2="212.62" y1="208.77" x1="212.62">
	<stop id="stop89" style="stop-color:#acacac" offset="0"/>
	<stop id="stop91" style="stop-color:#656565" offset="1"/>
</linearGradient>
<path id="path93" style="fill-rule:evenodd;fill:url(#XMLID_24_)" d="m179.17 164.64c1.84 3.71 3.06 6.88 3.53 10.04 0.5 3.03 0.4 5.84-0.47 8.28 3.46 0.54 5.65 1.37 6.59 2.63 1.01 1.15 0.76 2.48-0.9 4.82-1.73 2.38-4.64 5.3-9.18 9.18 3.38-0.43 6.16 0.15 8.31 1.73 2.27 1.48 3.79 3.96 4.83 7.46 5-3.39 11.09-5.87 18.79-7.46 7.78-1.62 16.52-2.34 27.07-2.16-2.12-2.88-3.38-5.36-3.92-7.45-0.54-2.19-0.76-4.35 0.86-5.22 1.51-0.9 4.28-0.9 8.32 0-0.62-3.24-0.62-6.01 0-8.31 0.61-2.42 1.73-4.18 3.49-5.69-9.29 1.58-19.3 1.73-30.6 0.43-11.41-1.37-23.25-4.03-36.72-8.28z"/>
<linearGradient id="XMLID_25_" y2="126.59" gradientUnits="userSpaceOnUse" x2="315.24" y1="175.81" x1="315.24">
	<stop id="stop96" style="stop-color:#7accc8" offset="0"/>
	<stop id="stop98" style="stop-color:#94d6da" offset="1"/>
</linearGradient>
<path id="path100" style="fill-rule:evenodd;fill:url(#XMLID_25_)" d="m300.71 126.59c13.53 8.82 23.83 16.27 31.46 22.75 7.53 6.48 11.49 11.59 13.54 15.73 1.87 3.92 1.47 6.59-1.73 8.28-3.28 1.65-7.49 3.49-17.5 1.76-10.18-1.76-24.19-5.79-42.84-12.24 5.91-3.63 10.23-8.35 13.11-14.43 2.81-6.16 4.17-13.25 3.96-21.85z"/>
<linearGradient id="XMLID_26_" y2="167.7" gradientUnits="userSpaceOnUse" x2="265.41" y1="196.53" x1="265.41">
	<stop id="stop103" style="stop-color:#78c143" offset="0"/>
	<stop id="stop105" style="stop-color:#076031" offset="1"/>
</linearGradient>
<path id="path107" style="fill-rule:evenodd;fill:url(#XMLID_26_)" d="m274.9 167.7c-1.88 1.62-4.61 2.74-8.75 3.49-4.14 0.69-9.25 0.97-15.73 0.86-1.12 1.81-1.98 3.86-2.6 6.56-0.61 2.59-1.18 5.65-1.33 9.18 4.39 2.01 8.25 3.81 12.24 5.25 3.96 1.48 7.38 2.6 10.95 3.5 5.22-2.88 8.82-5.8 11.34-8.75 2.44-3.1 3.92-5.83 3.06-9.18-1.05-3.46-4.11-6.91-9.18-10.91z"/>
<path id="path109" style="fill-rule:evenodd" d="m268.78 177.31c-1.59 2.56-2.96 8.35-1.73 10.05 1.19 1.54 7.67 2.05 9.18-0.44 1.33-2.59 0.75-13.28-0.47-14.87-1.44-1.61-5.44 2.63-6.98 5.26z"/>
<path id="path111" style="fill-rule:evenodd;fill:white" d="m275.59 174.24c1.81 0 3.28 1.27 3.28 2.84s-1.47 2.85-3.28 2.85-3.27-1.28-3.27-2.85 1.46-2.84 3.27-2.84"/>
<path id="path113" style="fill-rule:evenodd;fill:#404040" d="m279.72 203.95c-7.16-2.27-13.43-4.5-18.79-6.55-5.51-2.23-10.26-4.79-13.57-6.12-3.35-1.37-4.65-2.09-6.12-1.73-1.59 0.22-3.68 1.84-3.06 3.49 0.54 1.66 2.73 3.57 6.58 6.12 5.58-0.21 10.34 0.36 14.4 1.73 4 1.26 7.2 3.35 9.62 6.12 3.63-1.01 7.27-2.01 10.94-3.06z"/>
<path id="path115" style="fill-rule:evenodd" d="m209.77 180.37c0.58-0.29 9.36 0.9 11.38 2.59 1.8 1.59 2.95 5.55 0 7.46-3.21 1.94-16.13 3.85-17.93 3.92-1.62-0.11 5.18-3.46 7.88-4.36 2.52-1 6.16-0.43 7.42-1.33 1.12-0.97 0.97-3.02-0.43-4.35-1.55-1.48-8.86-3.71-8.32-3.93z"/>
<linearGradient id="XMLID_27_" y2="165.07" gradientUnits="userSpaceOnUse" x2="285.58" y1="202.65" x1="285.58">
	<stop id="stop118" style="stop-color:#f0f0f0" offset="0"/>
	<stop id="stop120" style="stop-color:#a7a7a7" offset="1"/>
</linearGradient>
<path id="path122" style="fill-rule:evenodd;fill:url(#XMLID_27_)" d="m278.86 166.8l5.22-1.73c3.88 2.38 6.94 4.75 9.18 6.98 2.16 2.23 3.24 3.64 3.92 6.56 0.5 2.88 0.5 7.02 0 10.47-0.54 3.35-1.55 6.52-3.02 9.65l-10.95 3.92-9.61-4.39c5.08-1.65 8.53-4.18 10.91-7.85 2.19-3.71 3.53-10.04 2.63-14-1.01-4.03-3.64-7.09-8.28-9.61z"/>
<linearGradient id="XMLID_28_" y2="171.19" gradientUnits="userSpaceOnUse" x2="320.15" y1="198.26" x1="320.15">
	<stop id="stop125" style="stop-color:#acacac" offset="0"/>
	<stop id="stop127" style="stop-color:#656565" offset="1"/>
</linearGradient>
<path id="path129" style="fill-rule:evenodd;fill:url(#XMLID_28_)" d="m298.08 171.19c2.34 3.75 3.6 7.6 3.49 12.24-0.03 4.61-1.44 9.32-3.92 14.83 8.06-1.65 14.72-2.77 20.52-3.49 5.65-0.75 10.22-1.04 13.57-0.86 2.59-1.15 4.68-2.95 6.55-5.69 1.8-2.7 3.21-6.19 4.36-10.48-2.16 1.26-6.05 1.7-11.81 1.3-5.9-0.5-21.2-4.21-22.72-3.92-1.44 0.21 10.23 3.45 14.01 5.68 3.63 2.24 9.21 7.64 7.85 7.85-1.55 0.04-12.17-4.61-16.6-6.98-4.57-2.41-7.56-5.26-10.08-6.99-2.52-1.76-4.36-2.88-5.22-3.49z"/>
<metadata><rdf:RDF><cc:Work><dc:format>image/svg+xml</dc:format><dc:type rdf:resource="http://purl.org/dc/dcmitype/StillImage"/><cc:license rdf:resource="http://creativecommons.org/licenses/publicdomain/"/><dc:publisher><cc:Agent rdf:about="http://openclipart.org/"><dc:title>Openclipart</dc:title></cc:Agent></dc:publisher><dc:title>Clam Security Guard</dc:title><dc:date>2007-01-04T13:55:57</dc:date><dc:description>Designed for this request:&#13;\n&#13;\nI'd love to have an icon for this: ClamTk. I've been using an ugly .xpm version of ClamAV's icon when I distribute it - it'd be nice to have something else, particularly if it's original. I'll give full credit to the designer.</dc:description><dc:source>https://openclipart.org/detail/2772/clam-security-guard-by-gerald_g</dc:source><dc:creator><cc:Agent><dc:title>Gerald_G</dc:title></cc:Agent></dc:creator><dc:subject><rdf:Bag><rdf:li>animal</rdf:li><rdf:li>cartoon</rdf:li><rdf:li>clam</rdf:li><rdf:li>guard</rdf:li><rdf:li>request+2773</rdf:li><rdf:li>security</rdf:li><rdf:li>shell</rdf:li><rdf:li>source+wiki</rdf:li></rdf:Bag></dc:subject></cc:Work><cc:License rdf:about="http://creativecommons.org/licenses/publicdomain/"><cc:permits rdf:resource="http://creativecommons.org/ns#Reproduction"/><cc:permits rdf:resource="http://creativecommons.org/ns#Distribution"/><cc:permits rdf:resource="http://creativecommons.org/ns#DerivativeWorks"/></cc:License></rdf:RDF></metadata></svg>
